<?xml version="1.0" encoding="utf-8"?>
<!-- Generator: Adobe Illustrator 27.5.0, SVG Export Plug-In . SVG Version: 6.00 Build 0)  -->
<svg version="1.1" id="svg3705" xmlns:svg="http://www.w3.org/2000/svg"
	 xmlns="http://www.w3.org/2000/svg" xmlns:xlink="http://www.w3.org/1999/xlink" x="0px" y="0px" viewBox="0 0 593.9 356.3"
	 style="enable-background:new 0 0 593.9 356.3;" xml:space="preserve">
<style type="text/css">
	.st0{fill:#0E3FA9;}
	.st1{fill:#FFA903;}
</style>
<g id="layer1" transform="translate(-83.889561,-537.94274)">
	<g id="g4700">
		<g id="g4521" transform="translate(-15,17)">
			<path id="path4523" class="st0" d="M145.9,876.5c0-0.4-0.4-3.2-0.9-6.2c-0.5-3-3.3-19-6.1-35.5s-5.5-32.7-6-36.1
				s-1.2-6.8-1.5-7.6c-0.4-1.1,1.1-2.3,5.8-4.5c17.3-8.1,28.1-28.1,24.9-46c-3.5-19.1-17.1-32.1-36-34.6c-4.2-0.5-8.1-1.1-8.7-1.3
				s-1.9-4.7-2.9-10.1c-1-5.4-3.1-16.6-4.7-24.9c-1.6-8.2-3.8-20-5-26s-3-15.3-4-20.5c-2-9.7-2.4-14-1.3-14c0.3,0,6.7-1.1,14.2-2.5
				c13.4-2.4,44.4-7.8,55.1-9.6c3-0.5,11.8-2,19.5-3.4c16.7-3,52.8-9.3,60.5-10.5c3-0.5,8-1.3,11-1.9s10.7-1.9,17-3
				c24.9-4.4,46-8.1,57-10c26.5-4.6,38.3-6.7,57.5-10.1c6.6-1.2,14.5-2.5,17.5-3s9.4-1.6,14.2-2.4s12.7-2.3,17.5-3.1
				s12.6-2.2,17.2-3s12.3-2.2,17-3s11-1.9,14-2.4s9.5-1.6,14.5-2.5s15.5-2.8,23.5-4.2s19.5-3.4,25.5-4.5s13.5-2.4,16.5-2.8
				c5.6-0.9,24.9-4.4,32.8-5.9c4-0.8,4.4-0.6,5.4,1.5c0.6,1.3,2.1,2.6,3.4,2.9c1.8,0.4,2.5,1.5,2.9,4.3c1.2,7.3,2.7,12.1,4.1,12.6
				c0.8,0.3,1.4,1.7,1.4,3.1c0,3.7,3.3,9.6,6.9,12.3c3.6,2.6,9.5,11.3,13,19.2c2,4.5,2.5,7.2,2.5,14.6c0.1,6,0.5,9.6,1.4,10.7
				c0.7,0.9,1.5,4.3,1.7,7.7c0.5,7.6,2.3,14,4.1,14c2,0,3.4,3.5,2.8,6.8c-0.4,1.9,0,3.9,1.1,5.6c1.5,2.3,1.6,3.3,0.5,7.9
				c-0.7,2.9-2.4,7.6-3.9,10.4c-2.5,4.7-2.6,5.4-1.4,8.8c0.9,2.7,1,4.3,0.2,5.7c-0.8,1.4-0.7,2.4,0.1,3.3c0.8,1,1.1,10.2,1.2,31
				c0,32.2-0.4,29.4,6.4,44.5c2.3,5.1,3.5,9.5,3.7,13.5c0.2,3.3,1.1,7.3,1.9,9c1.4,2.8,1.4,3.2-0.3,6c-1,1.7-1.9,4.7-1.9,6.7
				c0,4-0.2,4.1-7.5,5.3c-3.9,0.6-15.7,2.8-43,8c-7.2,1.4-22.5,4.1-34,6.1c-39.2,6.8-48,8.3-60,10.5c-6.6,1.2-14.5,2.5-17.5,3
				c-3,0.5-9.3,1.6-14,2.4c-33.6,6-59.6,10.6-66,11.6c-3,0.5-9.3,1.6-14,2.4s-17.5,3.1-28.5,5s-28.1,4.9-38,6.6s-20.5,3.6-23.5,4
				s-13.4,2.3-23,4c-32.2,5.7-51.5,9.1-57,10c-3,0.5-9.6,1.6-14.5,2.5s-13.9,2.5-20,3.5s-15.1,2.6-20,3.5
				c-9.5,1.7-31.8,5.5-32.2,5.5C146,877.3,145.9,877,145.9,876.5L145.9,876.5z"/>
			<path id="path4525" class="st0" d="M145.9,876.5c0-0.4-0.4-3.2-0.9-6.2c-0.5-3-3.3-19-6.1-35.5s-5.5-32.7-6-36.1
				s-1.2-6.8-1.5-7.6c-0.4-1.1,1.1-2.3,5.8-4.5c17.3-8.1,28.1-28.1,24.9-46c-3.5-19.1-17.1-32.1-36-34.6c-4.2-0.5-8.1-1.1-8.7-1.3
				s-1.9-4.7-2.9-10.1c-1-5.4-3.1-16.6-4.7-24.9c-1.6-8.2-3.8-20-5-26s-3-15.3-4-20.5c-2-9.7-2.4-14-1.3-14c0.3,0,6.7-1.1,14.2-2.5
				c13.4-2.4,44.4-7.8,55.1-9.6c3-0.5,11.8-2,19.5-3.4c16.7-3,52.8-9.3,60.5-10.5c3-0.5,8-1.3,11-1.9s10.7-1.9,17-3
				c24.9-4.4,46-8.1,57-10c26.5-4.6,38.3-6.7,57.5-10.1c6.6-1.2,14.5-2.5,17.5-3s9.4-1.6,14.2-2.4s12.7-2.3,17.5-3.1
				s12.6-2.2,17.2-3s12.3-2.2,17-3s11-1.9,14-2.4s9.5-1.6,14.5-2.5s15.5-2.8,23.5-4.2s19.5-3.4,25.5-4.5s13.5-2.4,16.5-2.8
				c5.6-0.9,24.9-4.4,32.8-5.9c4-0.8,4.4-0.6,5.4,1.5c0.6,1.3,2.1,2.6,3.4,2.9c1.8,0.4,2.5,1.5,2.9,4.3c0.3,2.1,1,5.5,1.6,7.6
				s0.8,4.1,0.6,4.3c-0.3,0.3-3.1,0.9-6.3,1.3c-3.2,0.5-11,1.8-17.4,3c-16.2,3-33.6,6.1-39.5,7.1c-2.8,0.5-7.7,1.3-11,1.9
				s-7.6,1.3-9.5,1.6s-8.2,1.4-14,2.5c-12.3,2.3-17.5,3.2-33,5.9c-20.5,3.6-33.4,6-38.5,7c-2.8,0.5-9.5,1.7-15,2.6s-12,2-14.5,2.5
				s-7,1.3-10,1.8s-8,1.4-11,2s-8,1.5-11,2s-10.7,1.9-17,3.1s-16.7,3-23,4.1c-6.3,1.1-14,2.5-17,3s-8,1.4-11,1.9
				c-3,0.5-7.8,1.3-10.5,1.9s-10.2,1.9-16.5,3c-34,6-45,8-57,10.2c-5.8,1.1-13.2,2.4-16.5,2.9s-8.5,1.4-11.5,2c-3,0.6-8,1.5-11,2
				s-10.9,1.8-17.5,3s-14.2,2.4-16.8,2.9c-2.6,0.4-5.3,1.3-5.9,1.9c-1.1,1.1-0.5,6,2.2,18.7c0.5,2.2,1.4,7.2,2,11
				c0.6,3.8,1.6,9.2,2,12s1.4,7.9,2,11.5c1.5,8.6,2.7,14.9,4.5,24.2c0.8,4.2,2,10.7,2.6,14.5c1.3,8.1,2.4,14.6,3.9,22.8
				c0.6,3.3,1.5,8.5,2,11.5c0.5,3,1.9,10.7,3,17c2.5,13.6,5.8,32.5,7,39.5c0.5,2.8,1.8,10.4,3,17s2.5,13.9,2.9,16.3
				c0.4,2.3,1,4.6,1.4,4.9c0.7,0.7,9-0.4,24.6-3.2c18-3.2,38-6.7,49.5-8.5c6.6-1,14-2.4,16.5-2.9s11.9-2.2,21-3.6s19.9-3.2,24-4
				s21-3.7,37.5-6.5s33.6-5.7,38-6.5c4.4-0.8,17.5-3.1,29-5s26-4.4,32-5.5s16.4-2.8,23-3.9s18.5-3.1,26.5-4.4
				c30.5-5.3,51.5-8.9,80-13.7c16.2-2.7,37-6.3,46.2-8s17.2-3,17.8-3c0.6,0,1.9,1.4,2.9,3.1c1.9,3.1,1.9,3.2,0,6.2
				c-1,1.7-1.9,4.8-1.9,6.8c0,4-0.2,4.1-7.5,5.3c-3.9,0.6-15.7,2.8-43,8c-7.2,1.4-22.5,4.1-34,6.1c-39.2,6.8-48,8.3-60,10.5
				c-6.6,1.2-14.5,2.5-17.5,3c-3,0.5-9.3,1.6-14,2.4c-33.6,6-59.6,10.6-66,11.6c-3,0.5-9.3,1.6-14,2.4s-17.5,3.1-28.5,5
				s-28.1,4.9-38,6.6s-20.5,3.6-23.5,4s-13.4,2.3-23,4c-32.2,5.7-51.5,9.1-57,10c-3,0.5-9.6,1.6-14.5,2.5s-13.9,2.5-20,3.5
				s-15.1,2.6-20,3.5c-9.5,1.7-31.8,5.5-32.2,5.5C146,877.3,145.9,877,145.9,876.5L145.9,876.5z M195.4,840
				c-0.2-0.7-1.3-6.7-2.5-13.2s-2.5-14-3-16.5c-0.5-2.5-1.2-6.5-1.5-9s-1-6.5-1.5-9s-1.8-9.9-3-16.5s-2.5-14.2-3.1-17
				c-1.4-7.6-5-28.3-6-34.5c-0.5-3-1.4-8-1.9-11c-0.6-3-1.5-8-2-11c-0.5-3-1.4-8-2-11c-2.1-11.5-3.1-16.9-5-28
				c-1.1-6.3-2.7-15.3-3.6-19.8s-1.5-10-1.3-12c0.3-3.6,0.4-3.7,5.3-4.3c2.8-0.4,7.5-1.1,10.5-1.7s8-1.5,11-2s8-1.5,11-2
				s8.2-1.5,11.5-2.1s8.5-1.5,11.5-2s13.1-2.3,22.5-4s19.5-3.5,22.5-4c3-0.5,10.7-1.9,17-3c6.3-1.2,14-2.5,17-3.1c3-0.5,8-1.4,11-2
				c6.1-1.1,10.6-1.9,25.5-4.4c5.5-0.9,11.6-2,13.5-2.5s6.6-1.4,10.5-2s9.2-1.5,12-2c6-1.1,13.8-2.5,22-3.9c3.3-0.6,10.7-1.9,16.5-3
				c5.8-1.1,13.6-2.5,17.5-3.1c3.9-0.6,8.8-1.5,11-2s7.4-1.4,11.5-2s9.1-1.5,11-2s6.6-1.4,10.5-2c9.5-1.5,14.7-2.4,34.5-6
				c6.3-1.2,16.5-3,22.5-4.1c6-1.1,12.3-2.2,14-2.5s5.7-1,9-1.6c7.2-1.2,13.1-2.3,20.5-3.8c3-0.6,9.8-1.8,15-2.6
				c5.2-0.9,12-2,15-2.6s7.9-1.4,10.8-1.8l5.3-0.7l2.3,4.6c1.3,2.5,3.7,5.6,5.4,6.8c3.6,2.6,9.5,11.3,13,19.2
				c2,4.5,2.5,7.2,2.5,14.6c0.1,6,0.5,9.6,1.4,10.7c0.7,0.9,1.5,4.3,1.7,7.7c0.5,7.6,2.3,14,4.1,14c2,0,3.4,3.5,2.8,6.8
				c-0.4,1.9,0,3.9,1.1,5.6c1.5,2.3,1.6,3.3,0.5,7.9c-0.7,2.9-2.4,7.6-3.9,10.4c-2.5,4.7-2.6,5.4-1.4,8.8c0.9,2.7,1,4.3,0.2,5.7
				c-0.8,1.4-0.7,2.4,0.1,3.3c0.8,1,1.1,10.2,1.2,31c0,32.6-0.4,30.3,7.2,46.5c2.4,5.2,3.5,11.9,1.8,12.1c-0.4,0-1.7,0.3-2.8,0.5
				c-3.2,0.6-112.4,19.5-118.5,20.4c-3,0.5-15,2.5-26.5,4.5s-34,5.8-50,8.6c-16,2.7-38.2,6.5-49.5,8.5c-35.9,6.2-61.2,10.6-70,12
				c-4.7,0.8-19.3,3.2-32.5,5.5c-77.4,13.4-110.4,19-111.7,19C196.2,841.3,195.6,840.7,195.4,840L195.4,840z M211.2,764.6l10.9-1.8
				l4-5.4c4.4-5.9,4.5-6.6,2.9-16.6c-1.1-7.1-1.5-7.6-7.1-10.7c-3.7-2-3.8-2.7-0.9-5.8c2.5-2.7,2.7-5.9,0.7-15.5
				c-1.2-6.1-1.5-6.5-6.2-9.5c-4.3-2.7-5.5-3-9.6-2.4c-8,1.1-21.5,3.4-21.8,3.8c-0.4,0.4,0.9,9.3,2.7,19.1c0.6,3.3,1.5,8.5,2,11.5
				c0.9,5.4,1.2,7.4,4.4,25c0.8,4.7,1.5,9.1,1.6,9.8c0,0.9,0.9,1.2,2.8,0.8C199.1,766.6,205.3,765.6,211.2,764.6L211.2,764.6z
				 M208.4,749.5c-0.3-1-1-3.9-1.4-6.5c-0.8-4.3-0.7-4.9,1.1-5.8c3-1.6,4.5,0.6,5.3,7.9c0.7,6.2,0.7,6.2-1.9,6.2
				C210,751.3,208.8,750.6,208.4,749.5L208.4,749.5z M203.3,723c-0.3-0.7-0.6-3.7-0.7-6.7c-0.2-4.7,0-5.5,1.7-5.9
				c2.8-0.6,4.6,2.5,4.6,7.9c0,3.4-0.4,4.9-1.6,5.3C204.9,724.6,203.8,724.4,203.3,723L203.3,723z M252.5,757.3c6.5-1.1,12-2,12.2-2
				c0.8,0-1.1-11.5-2-12.1c-0.5-0.3-3.5-0.2-6.6,0.3s-6,0.5-6.4,0.1c-0.8-0.8-3.2-13.1-6.7-35c-0.5-3.4-1.5-8.7-2.2-11.8l-1.2-5.7
				l-3.7,0.6c-10.1,1.5-11.2,1.9-11.1,3.5c0,1.5,1.5,11,3.9,24.1c0.5,3,1.7,9.5,2.5,14.5s2,11,2.5,13.5s1.2,6.2,1.5,8.2
				C236.1,760.1,236.1,760.1,252.5,757.3z M288.1,751.1l7.8-1.2l4.5-6c2.5-3.3,4.3-6.7,4-7.6c-0.3-0.9-1-4.7-1.6-8.6
				s-1.5-8.8-1.9-11s-1.6-8.9-2.6-14.9l-1.8-10.9l-6.1-4c-5.3-3.5-6.5-3.9-10.1-3.4c-2.2,0.3-6,0.9-8.4,1.2
				c-3.9,0.5-4.8,1.2-8.8,6.6c-3.5,4.8-4.3,6.6-3.8,8.6c0.6,2.5,1.2,5.4,3.4,19.6c0.6,3.8,1.9,11,2.8,16l1.7,9l5.5,3.7
				C279.2,752.8,278.2,752.6,288.1,751.1L288.1,751.1z M283.7,738.5c-1.1-0.2-1.9-1.8-2.3-4.6c-0.3-2.3-1-6.2-1.5-8.7s-1.4-7.9-2-12
				c-0.6-4.1-1.6-9-2.2-10.8c-1.2-3.9-0.2-5.5,3.3-5c2.4,0.3,3.1,3,7.8,30.3C288.5,737.9,288.1,739.5,283.7,738.5L283.7,738.5z
				 M332.7,743.2c4.7-1,5.7-1.7,9.3-6.5l4.1-5.4l-1.2-8.1c-1.8-12.2-1.4-11.9-11.1-9.8l-5.1,1.1l0.3,8.2c0.3,8.1,0.3,8.2-2.2,8.2
				c-2.8,0-2.8,0-6.9-23.7c-1.1-6.4-2.3-12.8-2.6-14.1c-0.5-1.9-0.1-2.5,1.7-3c3.2-0.8,5,1.3,5.6,6.7c0.5,4.4,0.7,4.6,3.6,4.6
				c3.6,0,11.5-1.5,12.2-2.2c0.3-0.3,0-2.9-0.6-5.9c-0.6-3-1.3-6.4-1.5-7.7c-0.3-1.5-2.6-3.6-6.4-6.1l-6-3.8l-8.3,1.4
				c-8.7,1.4-8.7,1.5-14.3,9.3l-2.5,3.6l4,22.6c2.2,12.4,4,23.1,4,23.7c0,1.2,7.1,6,11.5,7.8c1.6,0.7,3.9,1,5,0.8
				C326.5,744.6,329.8,743.9,332.7,743.2L332.7,743.2z M365.2,737.7c1.9-0.7,2.3-7.5,0.8-11.6c-1.4-3.8-2.4-14.1-1.3-13.4
				c0.5,0.3,3.8,5.4,7.3,11.2l6.3,10.6l6.9-0.7c7.4-0.7,9.7-1.3,9.7-2.5c0-0.4-4.5-7.6-10.1-16c-11.4-17.2-10.9-14.8-6.9-32
				c1.2-5.2,2.4-11.2,2.7-13.4l0.5-3.9l-4.4,0.7c-12.3,1.9-11.1,0.9-12.3,10.5c-1.1,9-2.2,15-2.9,15.7c-1.6,1.6-2.2-0.7-4.5-16.7
				c-0.6-4.3-0.8-4.5-4.3-4.8c-2-0.2-5.5,0.2-7.8,0.8c-4.5,1.2-4.7,1.8-3.1,9.7c1.7,8.3,4.6,24.6,7.4,41.3c0.9,5.2,1.9,11,2.2,12.9
				l0.6,3.4l5.8-0.6C360.9,738.6,364.3,738.1,365.2,737.7L365.2,737.7z M414.4,728.8c10.5-1.7,11-1.9,16.8-9.6
				c3.9-5.2,0.3-23.8-4.7-23.9c-0.6,0-1.9-0.7-3-1.5c-1.8-1.4-1.8-1.6,0.8-6c2.6-4.4,2.6-4.8,1.5-10.8c-1.8-9.7-2.6-11.1-7.7-13.8
				c-5.1-2.8-6.3-2.8-23.7,0.3c-6.9,1.2-7,1.3-6.9,4.2c0.1,3.8,2.2,16.2,7.5,44.5c0.6,3,1.3,8,1.7,11c0.9,7.1,1.7,8.2,5,7.6
				C403.2,730.6,408.9,729.7,414.4,728.8L414.4,728.8z M411.5,714.7c-0.3-0.7-0.8-3.9-1.2-7.2c-0.6-5.4-0.5-6,1.4-6.5
				c2.9-0.8,3.9,0.9,4.7,7.9c0.7,6,0.6,6.1-1.9,6.6C413,715.8,411.8,715.5,411.5,714.7z M406.5,686.8c-0.3-0.8-0.9-3.7-1.2-6.4
				c-0.6-4.5-0.5-5,1.6-5.6c2.8-0.9,3.4-0.2,5,6.4c1.1,4.5,1.1,5.5-0.1,6.2C409.6,688.7,407.1,688.5,406.5,686.8L406.5,686.8z
				 M457.4,721.3c3.3-0.6,6.9-1.2,8-1.5c2.9-0.6,9.4-10.4,9.4-14.1c0-1.6-0.7-6.1-1.5-10c-0.8-3.9-1.9-10-2.5-13.5
				c-0.5-3.5-1.7-10-2.5-14.4c-0.8-4.4-1.5-9.2-1.5-10.6c0-1.4-0.6-3.3-1.3-4.3c-1.2-1.6-1.9-1.6-8-0.5l-6.7,1.2v3.8
				c0,2.1,0.4,5.9,0.9,8.6c0.5,2.6,1.9,10,3,16.3c1.2,6.3,2.6,14.1,3.2,17.2c1.3,6.8,0.7,8.8-2.5,8.8c-2.2,0-2.5-0.7-4.6-11.2
				c-1.2-6.2-2.7-14-3.2-17.2s-1.4-8.2-1.9-11c-0.5-2.8-1.2-6.9-1.5-9.2c-0.7-4.9-1.4-5.1-10.2-3c-5.2,1.2-5.3,1.3-5.3,5.1
				c0,2.1,0.4,5.7,1,8s1.9,9.8,3.1,16.7c1.2,6.9,2.5,14.5,3,17c0.5,2.5,1.2,6.1,1.4,8c0.4,2.9,1.5,4.1,6.2,7.2
				C449.9,722.8,449.4,722.7,457.4,721.3L457.4,721.3z M503.4,713.1c5.1-1.1,6.6-2.3,11.2-9.2c2.4-3.6,2.5-4.3,1.5-9
				c-0.6-2.8-1.4-7-1.7-9.3c-0.5-3.3-1.4-4.8-4.3-7c-6.1-4.6-7.9-5.3-14.1-5.3c-6.7,0-6.7,0-7.3-9c-0.3-4.2-0.1-4.5,2.5-4.8
				c2.5-0.3,2.8,0,3.4,3.9l0.7,4.2l6.5-0.6c3.6-0.3,6.9-1,7.4-1.5s0.6-3.4,0.2-6.4c-0.7-5.5-0.8-5.6-6.7-9.3l-6-3.7l-8.1,1.1
				c-7.6,1-8.3,1.3-11.3,4.9c-5.5,6.5-5.8,8.2-3.7,19.1l1.9,9.6l5,3c3.7,2.2,6.7,3.2,11.5,3.6l6.5,0.5l1.2,5.5
				c0.9,3.9,0.9,5.8,0.1,6.8c-1.9,2.3-4,1.3-5.6-2.8c-1.8-4.5-0.7-4.3-11.7-2.5c-1.1,0.2-2.6,0.4-3.3,0.5c-1,0.1-1.1,1.5-0.6,5.4
				c0.8,6.2,1.2,6.8,7.8,11.3C491.7,715.5,492,715.5,503.4,713.1L503.4,713.1z M541.7,706.7l3.4-0.5l-0.6-4.7
				c-0.3-2.6-1-7.2-1.6-10.2c-7.5-43.2-7.2-39.8-2.8-40.2c3.2-0.3,3.2-0.3,3.1-5.5c-0.2-8-0.4-8.2-6.5-7.1c-9,1.5-17.1,3-22.1,4.1
				l-4.8,1l0.6,5.1c0.4,2.8,0.9,5.5,1.3,5.8c0.3,0.4,2.4,0.8,4.6,1c4.8,0.4,4.7,0.3,8.6,23.8c2.8,17.1,4.2,24.7,5,26.7
				C530.8,708.3,531.1,708.3,541.7,706.7L541.7,706.7z M570.7,701.3c16.6-2.9,16.2-2.6,14.7-9.1l-1.2-5.3l-6.6,0.3l-6.6,0.3
				l-1.2-5.6c-1.7-8.4-1.2-10,3.3-10.7c2.1-0.3,4.2-1,4.7-1.5c1.1-1.2-1-12.4-2.4-12.4c-0.6,0-2.6,0.4-4.5,1c-2.2,0.6-3.8,0.6-4.4,0
				c-1.2-1.2-2.5-9.6-1.7-10.9c0.3-0.5,3.1-1.3,6.1-1.8c6-1,5.8-0.6,4.4-9.1c-0.5-3-1.2-4.2-2.3-4.2c-3.8,0-24.6,4.1-25.5,5
				c-0.6,0.6-0.4,4.6,0.8,11.2c1,5.6,2.6,15.4,3.6,21.8s2.1,12.4,2.4,13.5s1,5.4,1.6,9.5c1.4,8.7,1.7,10,2.5,10
				C558.7,703.3,564.2,702.4,570.7,701.3L570.7,701.3z M600.8,696l4.5-1.2l-0.3-4.4c-0.2-2.4-1-7.4-1.7-11c-0.8-3.6-1.4-7.3-1.4-8.3
				c0-2.1,3.8-4.4,5.1-3.1c0.5,0.5,1.7,5.9,2.7,11.9s2.1,11.5,2.5,12.2c1.6,2.6,14.6,0.2,14.6-2.7c0-0.9-0.9-6.5-2-12.6
				c-2-10.6-2.2-11.1-6.1-14.5l-4.1-3.5l2.7-3.2c2.7-3.2,2.7-3.3,1.6-11.4c-1.2-8.8-2.2-10.5-8.5-14.6c-3.5-2.2-4.7-2.4-10-1.9
				c-7.7,0.8-20.3,3.1-21.1,3.9c-0.3,0.3-0.1,3,0.4,5.9c0.6,2.9,1.6,8.3,2.2,11.8c2.7,15.3,3.7,21.3,6,33c0.5,2.5,1.2,6.9,1.5,9.8
				c0.6,5.1,0.7,5.2,3.8,5.2C594.9,697.2,598.4,696.6,600.8,696L600.8,696z M598.1,649.5c-1.5-7.4-1.5-7.9,0.3-8.6
				c2.8-1.1,4.4,0.5,5.6,5.9c1.4,6.3,0.8,8.5-2.4,8.5C599.6,655.3,599.1,654.6,598.1,649.5z"/>
		</g>
		<path id="path4556" class="st1" d="M600.3,708.6l-1.5,0.1l-2.4-12.6l-2.4-12.6l-1.1-0.1c-0.6,0-2,0.2-3.2,0.4l-2.1,0.4l1.6,7.5
			c0.9,4.1,2,9.9,2.5,12.8l0.9,5.3l-7,1.4c-3.8,0.8-7.3,1.4-7.7,1.3c-0.8,0-0.2,2.8-9.1-43.5c-2.2-11.5-4-21.1-3.9-21.2
			c0.1-0.1,6-1.3,13.1-2.7l13-2.5l6.2,3.9l6.2,3.9l1.6,8.6l1.6,8.6l-3,3.5c-1.7,1.9-3,3.6-2.9,3.7c0,0.1,2,1.2,4.2,2.5l4.2,2.2
			l1.5,8.1c0.8,4.5,2,10.3,2.6,13l1.1,4.9l-6.2,1.3C604.5,707.9,601.1,708.5,600.3,708.6L600.3,708.6z M590,662.6l-1.3-6.1l-3,0.5
			l-3,0.5l1.1,6.6c0.6,3.6,1.3,6.8,1.5,7c0.2,0.3,1.4,0.1,2.9-0.3c1.6-0.5,2.6-0.6,2.7-0.3c0.1,0.2,0.2-0.1,0.3-0.7
			C591.3,669.3,590.7,666,590,662.6z M559,716.2c-4,0.7-8.9,1.6-10.9,2l-3.7,0.8l-1.8-9.7c-3.1-16.4-8.6-43.9-9.9-49.8l-1.2-5.6
			l4.6-0.8c2.5-0.4,9-1.6,14.5-2.6l9.8-1.9l1.3,6.3l1.3,6.3l-6.5,1.3l-6.5,1.3l1,5.5c0.5,3,1.1,5.6,1.2,5.8c0.2,0.2,2.6-0.2,5.5-0.9
			l5.2-1.1l1.1,4.9c0.6,2.7,1.1,5.6,1.2,6.5l0.1,1.6l-5.4,1l-5.4,1l1.7,7.6l1.7,7.6l6.6-1.1l6.6-1.1l0.8,3.6c0.4,2,0.9,4.8,1.1,6.3
			l0.3,2.7l-3.3,0.6C567.7,714.6,563,715.4,559,716.2L559,716.2z M524.3,722.4c-4,0.7-7.4,1.3-7.5,1.2c-0.1-0.1-2.4-11.8-5.2-26.1
			s-5.1-25.9-5.3-25.9c-1.3,0.1-2.5,0.3-5.2,0.8L498,673l-1.3-6.3l-1.3-6.3l2.9-0.4c1.6-0.2,7-1.2,11.9-2.1c4.9-0.9,11-2,13.5-2.4
			l4.5-0.7l0.4,2c0.2,1.1,0.7,3.9,1,6.1l0.6,4l-4.1,0.9c-2.9,0.6-4.1,1.1-4.1,1.5c0,0.3,2.2,12,5,25.9s4.9,25.5,4.8,25.6
			C531.7,720.9,528.3,721.7,524.3,722.4L524.3,722.4z M486.2,729.3l-8.5,1.5l-5.8-3.7l-5.8-3.7l-0.9-5.8l-0.9-5.8l7.6-1.6l7.6-1.6
			l0.8,4.2l0.8,4.2l3.2-0.6l3.2-0.6l-1.1-5.1c-0.6-2.8-1.1-5.7-1.2-6.3c-0.1-1.5-0.4-1.6-6.8-0.8l-5.2,0.6l-3.4-2
			c-1.8-1.1-4.7-2.8-6.4-3.8c-1.7-1-2.8-1.8-2.6-1.8c0.2,0-0.5-4.4-1.4-9.7l-1.8-9.6l1.5-2.1c0.8-1.2,2.7-3.7,4.2-5.7l2.7-3.6
			l8.1-1.5l8.1-1.5l6.3,3.7l6.3,3.7l1.2,5.9l1.2,5.9l-6.2,1.2c-3.4,0.7-6.9,1.2-7.7,1.3l-1.5,0.1l-0.9-4.1c-1-4.6-1-4.6-4.7-3.8
			l-2.3,0.5l1,6.2c0.6,3.4,1.2,6.3,1.5,6.4s2.8,0,5.8-0.4l5.3-0.6l5.6,3.3c3.1,1.8,5.9,3.5,6.2,3.8c0.4,0.3,1.2,3.3,2.5,10.4
			l1.9,9.9l-3.5,4.8c-1.9,2.6-3.9,5.2-4.3,5.6C494.9,727.6,493.5,728,486.2,729.3L486.2,729.3z M439.1,738l-3.1,0.5l-6.3-4.1
			c-3.5-2.3-6.1-4-5.7-3.9c0.5,0.1,0.4-0.8-0.3-3.9c-0.5-2.2-2.7-13.9-5-25.9c-2.3-12-4.3-22.6-4.5-23.5l-0.3-1.6l2.5-0.6
			c1.4-0.3,4.9-0.9,7.8-1.4l5.2-0.9l3.6,18.6c2,10.2,4.2,22,5,26.1l1.5,7.4l3.1-0.6l3.1-0.6l-1-5.8c-1.2-7.2-6.9-36.7-8.1-42.3
			l-0.9-4.1l7.6-1.5c4.2-0.8,7.7-1.4,7.8-1.3c0.1,0.1,2.1,9.9,4.4,21.8c2.3,11.9,4.7,24.3,5.4,27.5l1.2,5.9l-4.1,5.6l-4.1,5.6
			l-5.9,1.2C444.9,737,440.8,737.8,439.1,738L439.1,738z M401.2,744.9c-4,0.7-9.3,1.7-11.9,2.2c-4.2,0.9-4.6,0.9-4.7,0.2
			c0-0.4-1-5.9-2.3-12.1c-4.8-23.8-9.9-51.2-9.7-51.6c0.1-0.2,6.2-1.5,13.5-2.9l13.3-2.4l5.1,3.3l5.1,3.3l1.7,8.4l1.7,8.4l-2.8,3.7
			c-1.5,2-2.8,3.8-2.7,4c0,0.2,2.2,1.3,4.7,2.6l4.7,2.3l1,5.9c0.6,3.2,1.3,7.2,1.6,8.8l0.6,2.9l-1.7,2.2c-0.9,1.2-2.8,3.7-4.2,5.6
			c-2.2,3-2.7,3.4-4.2,3.7C409.2,743.4,405.2,744.1,401.2,744.9L401.2,744.9z M402.6,724.6c-1.6-7.9-1.3-7.5-5.6-6.6l-2,0.4l1.4,7
			c0.8,3.9,1.5,7.1,1.6,7.2c0.1,0.1,1.5-0.1,3.1-0.5l2.9-0.6L402.6,724.6L402.6,724.6z M397.6,698.7c-0.6-3.7-1.3-6.8-1.5-7
			c-0.2-0.2-1.5,0-3.1,0.3c-3.4,0.7-3.3,0.5-1.6,8.4l1.3,5.7l1.7-0.2c0.9-0.1,2.3-0.3,3-0.4l1.4-0.2L397.6,698.7L397.6,698.7z
			 M373.7,749.9c-4.7,0.9-8.5,1.5-8.6,1.4c-0.1-0.1-3.5-5.4-7.7-11.9c-4.1-6.5-7.7-12.1-8-12.4c-0.3-0.3-0.1,1.1,0.4,3.6
			c0.5,2.3,1.7,8.4,2.6,13.5l1.7,9.3l-7.7,1.4c-4.2,0.8-7.8,1.3-7.9,1.3c-0.1-0.1-1.3-6.2-2.7-13.7c-1.4-7.4-4.1-22-6.1-32.3
			l-3.6-18.8l5.5-0.9c3-0.5,6.6-1.1,7.8-1.4l2.3-0.5l0.5,3.2c0.8,5.7,4.5,24.2,4.7,23.8c0.1-0.2,1.3-6.7,2.5-14.5l2.3-14.1l7.7-1.6
			c4.2-0.9,7.8-1.5,8-1.4s-1.4,7.5-3.5,16.4l-3.8,16.2l2.7,3.8c1.5,2.1,4.6,6.6,6.9,9.9c7,10,12.4,17.9,12.3,18
			C382.2,748.4,378.4,749.1,373.7,749.9L373.7,749.9z M314.4,760.8l-6,1.1l-6.5-3.7l-6.5-3.7l-0.7-4.3c-1.1-6.6-6.4-34.1-7.2-37.8
			l-0.7-3.3l4.3-5.9l4.3-5.9l8.5-1.6l8.5-1.6l5.8,3.7l5.8,3.7l1.5,7.8c0.8,4.3,1.4,7.9,1.4,8c-0.1,0.1-3.5,0.8-7.6,1.6l-7.4,1.4
			l-1.2-6.2l-1.2-6.2l-3,0.4c-1.6,0.2-3.1,0.5-3.2,0.6c-0.2,0.2,3.7,20.4,6.3,33.3l1.3,6.5l3.1-0.5l3.1-0.5l-1.4-7.5
			c-0.8-4.1-1.3-7.6-1.3-7.7c0.1-0.1,3.5-0.8,7.6-1.6l7.4-1.4l1.9,9.1l1.9,9.1l-4.3,5.7c-4.2,5.6-4.3,5.7-6.3,6.1
			C321.3,759.5,317.7,760.2,314.4,760.8L314.4,760.8z M273.6,768.3l-7.8,1.4l-6.2-3.9l-6.2-3.9l-3.7-19.4c-2-10.7-4-20.8-4.4-22.5
			l-0.7-3.1l4.5-6.1l4.5-6.1l3.9-0.6c2.2-0.3,5.8-1,8.1-1.5l4.2-0.9l6.2,3.7l6.2,3.7l2.1,10.9c1.2,6,3.1,16.1,4.3,22.3
			s2.2,11.8,2.1,12.3c-0.1,1.3-7.8,11.9-8.7,12.1C281.8,766.9,277.9,767.5,273.6,768.3L273.6,768.3z M271,735.6
			c-2.1-10.9-3.9-19.9-4.1-20.1c-0.2-0.2-1.6-0.1-3.1,0.3l-2.7,0.6l2.7,13.4c1.5,7.4,3.2,16.3,3.8,19.9l1.1,6.4l2.2-0.3
			c1.2-0.2,2.6-0.4,3.1-0.4C274.8,755.3,274.8,755.1,271,735.6L271,735.6z M234.3,775.4c-6.4,1.2-11.7,2.1-11.8,2.1
			c-0.2-0.1-10.1-51.2-11.4-58.8l-1-5.9l7.7-1.4c4.3-0.8,7.8-1.3,7.8-1.3c0,0,1.5,7.4,3.3,16.4s4.1,20.7,5.2,26l2,9.6l5.9-1
			c3.3-0.6,6.3-1.1,6.7-1.1c0.7-0.1,0.9,0.5,2.1,5.7c1.5,6.7,1.6,6.3-2.5,7.1C247,773.1,240.7,774.2,234.3,775.4L234.3,775.4z
			 M199.7,781.8c-4.2,0.7-10,1.8-12.9,2.4l-5.2,1l-2.2-11.2c-1.2-6.2-3.9-20.4-6.1-31.5c-2.2-11.2-3.9-20.7-3.9-21.3
			c0.1-0.9,0.3-1,13.8-3.5l13.7-2.5l5,3.2l5,3.2l1.6,8.6l1.6,8.6l-2.9,3.7l-2.9,3.7l4.8,2.4l4.8,2.4l1.3,6.1
			c0.7,3.3,1.3,7.4,1.4,9.1l0.1,3l-3.5,4.8c-3.4,4.7-4.8,6.2-5.6,6.3C207.6,780.4,203.9,781,199.7,781.8L199.7,781.8z M199.7,761.4
			l-1.4-7.1l-3.1,0.7l-3.1,0.7l1.4,7c0.9,4.4,1.6,7,1.9,7c0.3,0,1.6-0.2,3.1-0.6l2.6-0.6L199.7,761.4L199.7,761.4z M194.7,735.6
			c-0.7-3.6-1.3-6.6-1.4-6.7c-0.1-0.2-1.5,0-3,0.3l-2.7,0.6l0.6,4.3c0.4,2.4,0.9,5.4,1.2,6.8l0.5,2.5l3-0.7l3-0.7L194.7,735.6
			L194.7,735.6z"/>
		<g id="g4695">
			<polygon id="rect4604" class="st1" points="138.8,639.2 601.1,558.2 602,563.1 139.6,644.1 			"/>
			<polygon id="rect4606" class="st1" points="142.6,639.5 181.3,862.3 176.3,861.9 137.7,639.1 			"/>
			<polygon id="rect4657" class="st1" points="180.4,857.4 642.7,776.3 643.6,781.2 181.2,862.3 			"/>
		</g>
	</g>
</g>
</svg>
